<svg id="Capa_1" data-name="Capa 1" xmlns="http://www.w3.org/2000/svg" viewBox="0 0 1200 1200"><defs><style>.cls-1{fill:#219043;}.cls-2{fill:#133213;}.cls-3{fill:#5b993c;}</style></defs><title>icono G</title><path class="cls-1" d="M593.53,1113.42C313.84,1090.48,96.69,842.63,117.42,559s267.1-490.58,551.13-476c72.6,3.72,143.32,27.6,143.32,27.6S737.22,73.73,646.26,67.62c-300.2-20.17-550,197.89-571.51,492.17S274.23,1112.88,568.6,1133.3c218.69,15.17,308.89-47.2,308.89-47.2S817,1131.74,593.53,1113.42Z"/><path class="cls-2" d="M980.52,992.35c-15.37,12.45-160.11,113.74-403.67,72.15-234.29-40-407.66-209.35-420.94-454,125.5-.73,213.27,59.12,274.83,126,6.24,6.79,27.6,36.85,33.35,44.11,20.55,25.92,165.68,211.76,381.65,230C852,1011.19,923.39,1018.68,980.52,992.35Z"/><path class="cls-3" d="M1142.12,555.21V660.58c-31.56,180.48-74.26,301.66-249.68,330.07-58.36,9.45-129.72-9.56-208.2-53.56C809,900,901.74,831.47,926,723.07H671.44V555.21Z"/></svg>